<?xml version="1.0" encoding="UTF-8"?>
<svg version="1.1" xmlns="http://www.w3.org/2000/svg" width="800" height="800">
<path d="M0 0 C12.20027144 7.4391899 21.08343793 19.90438343 24.71875 33.734375 C26.57093215 42.94654414 25.54095936 51.68494301 24.59765625 60.953125 C23.37402336 74.36602398 24.94440591 86.79854185 33 98 C40.40666885 106.21940891 50.14646327 110.74172316 61.19140625 111.3359375 C62.64819488 111.36554299 64.10541375 111.37804361 65.5625 111.375 C66.72942383 111.37367065 66.72942383 111.37367065 67.91992188 111.37231445 C75.71296736 111.21591368 82.58370943 109.39761885 90 107 C91.97840219 106.41407915 93.95747145 105.83040108 95.9375 105.25 C97.29242657 104.83581107 98.64693944 104.42024469 100 104 C100 103.34 100 102.68 100 102 C99.09121094 101.87044922 99.09121094 101.87044922 98.1640625 101.73828125 C89.14252921 100.22543951 80.9207394 97.35444585 75.18359375 89.89453125 C72.27768089 85.24315257 70.47982952 80.54848508 71 75 C71.58007812 75.22816406 72.16015625 75.45632813 72.7578125 75.69140625 C77.52109575 77.4442316 80.96988654 78.59491403 86 77 C86.66 76.34 87.32 75.68 88 75 C87.6814823 72.89179203 87.6814823 72.89179203 87 71 C86.484375 71.825 85.96875 72.65 85.4375 73.5 C83 76 83 76 79.6875 76.5625 C74.69971742 75.80165181 70.89290298 74.41330834 67.70703125 70.3515625 C63.5406586 63.46275863 63.17853332 55.85283028 64 48 C65.61882138 42.09460567 68.26156467 38.03395689 73.375 34.625 C88.27337109 26.93551815 107.13322237 25.04046246 123.3125 29.6875 C125.22864179 30.40636627 127.1277219 31.17359649 129 32 C129.85980469 32.36222656 130.71960938 32.72445312 131.60546875 33.09765625 C137.281011 35.82895309 140.61414624 39.14471722 143 45 C145.12715436 51.92347838 145.62408234 58.16672975 143 65 C141.02404945 68.44197838 138.95225836 71.34296748 136 74 C136.66 74.33 137.32 74.66 138 75 C137.5219838 82.48892042 134.51890889 88.84209791 129.1875 94.1875 C123.49470741 98.7442869 115.81630993 100.69243769 109 103 C124.513231 109.61862975 143.09762279 114.97535461 159.6640625 109.03125 C170.64546427 104.1832733 177.71984513 97.47392761 182.22265625 86.2265625 C185.476291 76.90710617 186.17300935 66.87979296 184.5078125 57.11328125 C181.98438717 41.64274287 184.17913898 27.76670773 193 14.6875 C201.91242559 2.71142811 201.91242559 2.71142811 206.26953125 1.2265625 C207.12611328 1.11441406 207.12611328 1.11441406 208 1 C206.73756969 4.44463128 205.27291521 7.22159636 203.125 10.1875 C193.69973411 24.02654894 191.37640262 41.67539406 194 58 C196.40481654 53.69732824 197.4140438 50.26563286 197.875 45.375 C199.23704278 34.76892918 203.52856325 24.57797482 210 16 C210.66 16 211.32 16 212 16 C210.70471738 20.12547515 209.15026628 24.05445857 207.43579102 28.01586914 C204.31335937 35.26189822 201.83772763 42.08432872 201 50 C201.86625 49.67 202.7325 49.34 203.625 49 C211.86216946 46.68957442 221.1826771 46.71028104 228.82421875 50.7109375 C229.90123047 51.34902344 229.90123047 51.34902344 231 52 C231.91394531 52.52851563 232.82789063 53.05703125 233.76953125 53.6015625 C236.20093529 55.03660097 238.60305421 56.50852889 241 58 C239.3189612 54.89229311 237.63004995 51.78895225 235.9375 48.6875 C235.43959961 47.77427979 234.94169922 46.86105957 234.42871094 45.92016602 C231.21722825 40.07794549 227.86280071 34.46617074 224.046875 28.99609375 C223.70140625 28.33738281 223.3559375 27.67867188 223 27 C223.33 26.01 223.66 25.02 224 24 C248.78102133 24.92294307 270.41382983 34.93741108 288 52 C288.68449219 52.61101562 289.36898438 53.22203125 290.07421875 53.8515625 C299.26563718 62.33872687 305.28297075 74.01433595 311 85 C316.79476219 71.8652057 314.38450594 56.06577138 309.9453125 42.86328125 C308.4863291 38.62469215 308.4863291 38.62469215 306 35 C305.80664062 36.12019531 305.61328125 37.24039063 305.4140625 38.39453125 C305.1514114 39.86725349 304.88837017 41.33990619 304.625 42.8125 C304.43550781 43.91948242 304.43550781 43.91948242 304.2421875 45.04882812 C303.59836518 48.60594646 303.03003944 50.95494084 301 54 C300.01 53.67 299.02 53.34 298 53 C297.26171875 50.62890625 297.26171875 50.62890625 296.6875 47.5625 C293.5973406 34.18765623 285.1213094 25.0201765 273.6875 17.8125 C271.46995312 16.52149759 269.24093891 15.24995767 267 14 C266.030625 13.44183594 265.06125 12.88367188 264.0625 12.30859375 C254.04466723 6.8777306 243.23344359 4.46775912 232 3 C231.67 2.01 231.34 1.02 231 0 C235.54945337 0.09529679 240.09847984 0.20171468 244.64746094 0.31738281 C246.1871067 0.35509103 247.72682335 0.39003125 249.26660156 0.421875 C274.88761187 0.95773927 298.13277094 4.40990779 317.2421875 23.1171875 C334.86196936 41.53559969 337.24209895 62.47458634 338.625 86.75 C338.80608225 89.76303435 338.99017296 92.77586712 339.17562866 95.78863525 C339.28904275 97.64728849 339.39947901 99.50612701 339.5062561 101.36517334 C339.80973647 106.52330675 340.25058899 111.64896367 340.78460693 116.78814697 C342.84952727 137.99263782 339.55248219 156.67139026 331 176 C330.01 176 329.02 176 328 176 C328.01571045 175.28569824 328.0314209 174.57139648 328.04760742 173.83544922 C328.63682691 154.67658365 328.63682691 154.67658365 325 136 C324.47212891 134.34871094 324.47212891 134.34871094 323.93359375 132.6640625 C321.31105948 125.23787635 317.92781228 118.19390007 313 112 C312.34 112 311.68 112 311 112 C310.78085937 112.99515625 310.56171875 113.9903125 310.3359375 115.015625 C308.26441672 124.20987886 305.83553277 133.22624456 303.01904297 142.22167969 C298.67514784 156.21836067 298.37056511 171.42113227 302.34375 185.56640625 C303 188 303 188 303 191 C298.37361856 189.18249301 296.02895892 186.18184354 293.9296875 181.73046875 C291.78942469 176.57005731 290.21100968 171.44954354 289 166 C274.6275395 179.75978013 262.54296513 200.94145336 261 221 C260.9484375 221.62390625 260.896875 222.2478125 260.84375 222.890625 C260.36191961 233.73180868 263.61342154 244.79222805 267 255 C264.3921057 254.63637204 263.20300418 254.20442379 261.32421875 252.3125 C251.55510386 238.50983647 246.07898111 221.81722288 245 205 C229.00670475 226.92523468 219.1610733 252.89751229 222.390625 280.31640625 C224.2293614 288.97968351 228.6824386 296.37322487 233 304 C233.67855194 305.32732418 234.35219597 306.65740097 235 308 C228.6708127 307.17831603 225.24020833 303.53163159 221 299 C211.14736515 286.16409723 206.60353759 271.88729753 206.625 255.875 C206.62371094 254.8739624 206.62242187 253.8729248 206.62109375 252.84155273 C206.74073318 244.37502405 208.17732288 236.97658311 211 229 C176.42283055 254.18823682 176.42283055 254.18823682 159 292 C158.08295701 302.52344416 160.29950182 311.9334108 163 322 C156.96870209 319.19795951 154.38400021 314.46927215 151.8828125 308.51171875 C148.94652489 300.15759072 148.72441081 291.77292252 149 283 C131.3349927 300.24297641 120.12661558 327.51542512 114 351 C113.77618652 351.85384277 113.55237305 352.70768555 113.32177734 353.58740234 C110.3340917 365.25066271 108.26742788 376.87879457 106.98754883 388.85253906 C106.88466553 389.77389648 106.78178223 390.69525391 106.67578125 391.64453125 C106.59239502 392.46284424 106.50900879 393.28115723 106.4230957 394.12426758 C106.28347412 394.74325928 106.14385254 395.36225098 106 396 C105.34 396.33 104.68 396.66 104 397 C102.87941349 394.75882698 102.71484964 393.14088467 102.45703125 390.65234375 C98.04667761 351.23348925 86.16079026 312.73502377 59 283 C59.02320313 283.59425781 59.04640625 284.18851563 59.0703125 284.80078125 C59.37252243 298.6808515 55.68776083 309.46835875 48 321 C47.34 321 46.68 321 46 321 C46.48069231 317.23457689 47.08160029 313.66619961 48.0625 310 C51.52699019 294.61976326 47.9905129 280.25974483 40 267 C37.20021607 263.13946005 34.18811741 259.54423691 31 256 C30.18789063 255.08154297 30.18789063 255.08154297 29.359375 254.14453125 C23.60091338 248.02253039 16.64935739 243.10291475 10 238 C8.73415068 237.02372829 7.46852337 236.04716864 6.203125 235.0703125 C3.13981902 232.70776547 0.07139724 230.35201683 -3 228 C-2.566875 229.86978516 -2.566875 229.86978516 -2.125 231.77734375 C2.52262694 252.691665 3.0893618 271.78905365 -7.93359375 290.8828125 C-12.28572474 297.4480309 -17.2909137 304.71882716 -24 309 C-24.66 309 -25.32 309 -26 309 C-25.40672116 304.31669281 -23.33602242 300.6469691 -21.125 296.5625 C-11.90890118 278.77575609 -12.56804388 260.58024072 -18.21875 241.796875 C-22.48335609 228.55994109 -28.7366804 216.18234814 -37 205 C-37.17015625 206.08796875 -37.3403125 207.1759375 -37.515625 208.296875 C-40.4459434 226.36579607 -45.95029708 241.82603334 -58 256 C-59.50154136 252.1035952 -58.42805244 249.4802379 -57.125 245.625 C-51.29865201 228.22744343 -52.46116223 209.04093921 -60.484375 192.53466797 C-65.57291684 182.67301132 -72.33734105 173.83625991 -79 165 C-79.37511719 166.21816406 -79.75023437 167.43632813 -80.13671875 168.69140625 C-80.65298966 170.31531292 -81.1699538 171.93899932 -81.6875 173.5625 C-81.93177734 174.36236328 -82.17605469 175.16222656 -82.42773438 175.98632812 C-84.19199452 181.4577678 -86.43933377 185.48092616 -90 190 C-90.99 189.67 -91.98 189.34 -93 189 C-92.67515625 187.20755859 -92.67515625 187.20755859 -92.34375 185.37890625 C-92.06210108 183.77350743 -91.78087367 182.16803463 -91.5 180.5625 C-91.35691406 179.77939453 -91.21382812 178.99628906 -91.06640625 178.18945312 C-87.57438481 157.98561482 -94.44269062 139.61193048 -101.10791016 120.77636719 C-101.93845854 118.19152969 -102.52838703 115.67104993 -103 113 C-112.62161534 124.40339596 -118.15940017 138.26575903 -118.09765625 153.26953125 C-118.09553383 154.29103523 -118.09553383 154.29103523 -118.09336853 155.33317566 C-118.08780298 157.49299647 -118.07525703 159.65271089 -118.0625 161.8125 C-118.05748054 163.28320162 -118.05291841 164.75390488 -118.04882812 166.22460938 C-118.03784488 169.8164404 -118.02060422 173.4082098 -118 177 C-121 176 -121 176 -122.46484375 173.4375 C-127.53264681 161.60814538 -131.4440243 148.94960057 -132 136 C-132.0515625 135.12472656 -132.103125 134.24945312 -132.15625 133.34765625 C-132.39422862 125.64309858 -131.37431975 118.36163191 -130.20581055 110.78027344 C-129.30477038 104.48188238 -128.79185109 98.22907096 -128.49609375 91.87890625 C-128.45814697 91.07419891 -128.4202002 90.26949158 -128.38110352 89.44039917 C-128.1976798 85.41391886 -128.03991404 81.38794066 -127.91064453 77.359375 C-127.16018655 57.46709654 -121.59642076 40.04005616 -108 25 C-107.06027344 23.93845703 -107.06027344 23.93845703 -106.1015625 22.85546875 C-91.72836589 7.51428134 -72.36917299 1.94905136 -52 1 C-46.54206634 0.86674002 -41.08394303 0.90344586 -35.625 0.9375 C-34.1953141 0.94253411 -32.76562645 0.94709357 -31.3359375 0.95117188 C-27.89058755 0.96200535 -24.44530573 0.97916016 -21 1 C-21 1.66 -21 2.32 -21 3 C-22.12535156 3.15855469 -23.25070312 3.31710937 -24.41015625 3.48046875 C-38.60251312 5.59035353 -52.10062256 8.50322232 -64 17 C-64.89203125 17.63550781 -65.7840625 18.27101563 -66.703125 18.92578125 C-78.57026882 27.99188134 -86.74052291 38.89090432 -89.75 53.6875 C-89.8325 54.450625 -89.915 55.21375 -90 56 C-90.66 56 -91.32 56 -92 56 C-95.26682231 48.46005743 -96.57184845 42.21237916 -96 34 C-104.48012784 48.84860329 -106.41788358 65.7975831 -102.4375 82.41015625 C-102.293125 82.93480469 -102.14875 83.45945312 -102 84 C-100.31705156 81.47557734 -98.84412764 78.92183307 -97.38598633 76.265625 C-93.51564804 69.26705144 -89.20186325 63.09912788 -84 57 C-83.236875 55.989375 -82.47375 54.97875 -81.6875 53.9375 C-65.01564174 35.7147712 -40.17826595 25.67138737 -15.80859375 24.078125 C-15.21175781 24.05234375 -14.61492187 24.0265625 -14 24 C-15.31171637 27.56307572 -16.88975047 30.53734385 -19 33.6875 C-24.10201489 41.5400726 -28.51452869 49.78500519 -33 58 C-32.01 57.34 -31.02 56.68 -30 56 C-28.40305386 54.98850916 -26.79809517 53.98961301 -25.1875 53 C-24.35605469 52.484375 -23.52460938 51.96875 -22.66796875 51.4375 C-15.33583662 47.4869515 -8.18491716 47.20011037 0 48 C3.07451579 49.02781778 5.24854957 50.23907173 8 52 C6.88030308 40.55206426 3.75981834 30.10944633 -2.2578125 20.2421875 C-2.83273437 19.17226563 -3.40765625 18.10234375 -4 17 C-3.67 16.01 -3.34 15.02 -3 14 C5.6037182 25.27647089 10.32065008 35.65569144 12.06347656 49.64038086 C12.16112305 50.4216333 12.25876953 51.20288574 12.359375 52.0078125 C12.43639648 52.70535645 12.51341797 53.40290039 12.59277344 54.12158203 C12.94962454 56.32074205 12.94962454 56.32074205 15 59 C18.96178421 51.07643157 15.74285705 37.69020376 13.40625 29.8125 C10.51761224 21.52712582 6.22752979 13.73910813 1.75 6.21875 C0 3 0 3 0 0 Z M76.30859375 46.421875 C74.66686881 48.1351027 74.66686881 48.1351027 73 51 C73.33 51.99 73.66 52.98 74 54 C74.55825974 53.83766876 75.11651947 53.67533752 75.69169617 53.50808716 C78.17789862 52.96084224 80.38803846 52.87296451 82.93286133 52.87060547 C83.91100296 52.86745331 84.88914459 52.86430115 85.89692688 52.86105347 C86.94801132 52.8630777 87.99909576 52.86510193 89.08203125 52.8671875 C90.16957199 52.86623077 91.25711273 52.86527405 92.37760925 52.86428833 C94.67825376 52.863608 96.9789002 52.86545206 99.27954102 52.86962891 C102.78861854 52.87496369 106.29756717 52.86968692 109.80664062 52.86328125 C112.04427111 52.86394236 114.28190152 52.8652242 116.51953125 52.8671875 C117.564543 52.86516327 118.60955475 52.86313904 119.68623352 52.86105347 C124.89956082 52.87769307 129.86338725 53.09229288 135 54 C134.82412813 50.13081896 134.52111897 48.479978 131.625 45.8125 C118.13314554 38.17560125 88.8477955 35.88083704 76.30859375 46.421875 Z M-70 56 C-80.96832941 65.94271939 -90.17055845 79.79357167 -91 95 C-91.05027344 95.86753906 -91.10054687 96.73507812 -91.15234375 97.62890625 C-91.68130773 113.85752104 -85.96549977 128.31663666 -76 141 C-74.95484415 137.77983957 -75.10155227 135.738845 -75.91796875 132.4765625 C-77.16418285 126.74208783 -77.34556938 121.22875336 -77.3125 115.375 C-77.30686035 114.32320557 -77.3012207 113.27141113 -77.29541016 112.18774414 C-77.09087159 98.95045356 -74.63447979 87.47306495 -69.40234375 75.3046875 C-68.10113088 72.23831956 -67.007869 69.17309953 -66 66 C-69.93478833 69.60858826 -72.33746128 73.00801308 -74.8125 77.8125 C-75.41707031 78.97394531 -76.02164063 80.13539063 -76.64453125 81.33203125 C-77.31548828 82.65267578 -77.31548828 82.65267578 -78 84 C-77.57531353 77.08857018 -76.05229074 72.17309157 -72.875 66.0625 C-71.51011352 63.39435236 -70.23001286 60.73633296 -69 58 C-69.33 57.34 -69.66 56.68 -70 56 Z M277 56 C278.34125555 59.52079582 279.9043148 62.88639866 281.56420898 66.26733398 C284.7225064 72.74789991 287.16518788 78.75928266 288 86 C287.34 86 286.68 86 286 86 C285.7421875 85.14019531 285.484375 84.28039062 285.21875 83.39453125 C283.95791365 79.88277872 282.38899169 76.90118714 280.5 73.6875 C279.8915625 72.63949219 279.283125 71.59148437 278.65625 70.51171875 C277.24334241 67.91312548 277.24334241 67.91312548 275 67 C275.391875 68.175625 275.78375 69.35125 276.1875 70.5625 C276.45949219 71.39136719 276.73148438 72.22023438 277.01171875 73.07421875 C277.71285781 75.14992292 278.44825203 77.21419725 279.20703125 79.26953125 C285.93475969 98.02993411 286.84781686 115.41310692 284 135 C283.65400368 137.66531229 283.32666401 140.33224392 283 143 C296.64328114 127.25775253 299.329416 109.12319918 298 89 C296.77717997 79.88347745 292.33353781 72.33210954 287 65 C286.54238281 64.36964844 286.08476563 63.73929687 285.61328125 63.08984375 C283.13253281 59.90478187 280.58305117 57.84271203 277 56 Z M274 65 C275 67 275 67 275 67 Z M-39 69 C-49.55024007 83.82736442 -51.26007633 102.81469234 -48.38671875 120.453125 C-44.61405313 139.18451043 -36.46003649 157.01589038 -27.90454102 173.96728516 C-27.0152198 175.96579755 -26.46050887 177.8657589 -26 180 C-28.77679381 177.53006579 -30.34624307 174.83756312 -32.109375 171.58203125 C-32.69605957 170.50018555 -33.28274414 169.41833984 -33.88720703 168.30371094 C-34.50192871 167.15161133 -35.11665039 165.99951172 -35.75 164.8125 C-36.06402771 164.22553345 -36.37805542 163.63856689 -36.70159912 163.03381348 C-49.00255722 139.9993193 -56.60993813 118.39676688 -56 92 C-61.97827758 97.97827758 -63.81023395 110.69974501 -64.125 118.765625 C-63.01533569 147.47818908 -42.10999543 174.254804 -24 195 C-23.37351562 195.72703125 -22.74703125 196.4540625 -22.1015625 197.203125 C-20.41633881 199.14943969 -18.70924922 201.07476722 -17 203 C-16.25363281 203.86238281 -15.50726563 204.72476563 -14.73828125 205.61328125 C-8.97051509 212.15974111 -2.83919478 217.60899537 4 223 C6.04661403 224.70288782 8.08826025 226.41044722 10.125 228.125 C14.99906445 232.19732539 19.94985845 236.14862943 25 240 C25.66 239.67 26.32 239.34 27 239 C26.35933594 238.23816406 25.71867187 237.47632813 25.05859375 236.69140625 C20.59480974 231.36866885 16.18413156 226.02575827 11.95703125 220.51171875 C10.43367335 218.55659075 8.89047902 216.62740254 7.32421875 214.70703125 C-4.09025703 200.69064325 -14.73271134 186.64696897 -22 170 C-22.28069336 169.36271973 -22.56138672 168.72543945 -22.85058594 168.06884766 C-31.0149924 149.11953913 -32.68930051 130.4775275 -32 110 C-34.58377644 112.54106939 -36.89144281 115.04801993 -39 118 C-43.1439026 104.73951168 -42.53113044 92.11096306 -39.75390625 78.6640625 C-39.09264158 75.45024766 -38.51654728 72.23970432 -38 69 C-38.33 69 -38.66 69 -39 69 Z M121 70 C119.64381501 71.12534105 119.64381501 71.12534105 119.9375 74.0625 C119.958125 75.031875 119.97875 76.00125 120 77 C124.05785349 79.02892674 126.6168051 79.16885197 131 78 C131.66 77.34 132.32 76.68 133 76 C131.948125 75.938125 130.89625 75.87625 129.8125 75.8125 C125.3708265 74.86591384 123.88406243 73.40843742 121 70 Z M247 70 C247.2165625 70.72058594 247.433125 71.44117188 247.65625 72.18359375 C251.49217465 86.97676611 250.95346545 102.9236578 249 118 C245.73991357 114.83047153 242.77762123 111.60062011 240 108 C240.165 109.27875 240.33 110.5575 240.5 111.875 C244.50085101 153.53091935 225.6142263 185.80679713 200 217 C197.64128656 219.82580131 195.25951123 222.63164643 192.86767578 225.42944336 C189.09964546 229.84469638 185.50323783 234.37285652 182 239 C182.33 239.66 182.66 240.32 183 241 C183.63164062 240.40574219 184.26328125 239.81148437 184.9140625 239.19921875 C190.08829638 234.40522396 195.34688591 229.86523203 200.9375 225.5625 C207.09863534 220.79902962 212.90582245 215.77486585 218.53662109 210.39599609 C219.5110153 209.46646889 220.4905249 208.54227418 221.47509766 207.62353516 C243.72767086 186.8226949 269.41738598 153.70511976 272.23828125 122.3515625 C272.54700326 111.01009078 269.64589154 100.29018384 265 90 C264.04779202 92.85662394 263.92387327 94.35637533 264.04296875 97.2890625 C264.73907482 121.3720502 257.2303027 140.27995372 246.25 161.5 C245.89784424 162.18771484 245.54568848 162.87542969 245.18286133 163.58398438 C242.94308408 167.76867947 240.51502738 170.80452057 237 174 C237.56847656 172.84886719 238.13695312 171.69773437 238.72265625 170.51171875 C251.03139482 145.27037038 264.38323328 114.31106123 256.05859375 85.83203125 C253.09026278 76.67183588 253.09026278 76.67183588 247 70 Z M206 77 C206.15855469 77.51304687 206.31710937 78.02609375 206.48046875 78.5546875 C218.44060112 117.80506666 222.02200833 157.61271506 202.2578125 195.32421875 C201.63519531 196.64873047 201.63519531 196.64873047 201 198 C201.33 198.66 201.66 199.32 202 200 C218.77569687 178.79738312 231.72773131 153.21481877 229.74609375 125.44140625 C227.47106639 106.72879385 219.11350624 91.17883585 207 77 C206.67 77 206.34 77 206 77 Z M0 80 C-15.4037541 98.82681057 -21.8730279 117.5667045 -20 142 C-17.4593172 162.8124266 -6.20208242 184.03973604 7 200 C7.66 200.33 8.32 200.66 9 201 C7.79754346 197.13917141 6.35565272 193.5104486 4.6394043 189.8503418 C1.35771028 182.79240257 -1.18125279 175.67300319 -3.3125 168.1875 C-3.67553223 166.91797485 -3.67553223 166.91797485 -4.04589844 165.62280273 C-11.36650002 139.00689196 -9.46441108 111.59826193 0.14453125 85.87109375 C1.30839384 82.96858094 1.30839384 82.96858094 0 80 Z M16 118 C15.35105763 120.06152389 14.7059736 122.12426258 14.0625 124.1875 C13.70285156 125.33605469 13.34320313 126.48460937 12.97265625 127.66796875 C6.73366946 149.04088335 15.385737 170.42706086 25.12890625 189.33203125 C27.26590619 193.48107911 29.16167808 197.7105822 31 202 C19.57117793 193.55260978 12.81190009 180.66301411 7 168 C4.94006864 174.17979407 9.73790595 181.4627332 12.5078125 187.03125 C19.63015206 199.83081675 29.35804435 210.70425516 39.38037109 221.28320312 C41.10464056 223.11091836 42.81338238 224.9522385 44.51953125 226.796875 C49.64369611 232.32963885 54.76394803 237.81944659 60.1875 243.0625 C66.07978497 248.89682807 71.04869067 255.36841582 76 262 C76.76183594 263.00546875 77.52367187 264.0109375 78.30859375 265.046875 C90.51752093 281.84775162 98.07285186 300.20234295 104 320 C105.44004174 317.27415176 106.49803053 314.636595 107.375 311.68359375 C115.96871684 283.75199799 131.39813557 262.39549908 151 241 C151.92218924 239.98466033 152.84405109 238.96902321 153.765625 237.953125 C161.62245018 229.31276765 161.62245018 229.31276765 165.75 225.25 C168.62322566 222.41733753 171.30309671 219.46864285 173.9296875 216.40625 C175.52215098 214.55538679 177.13186869 212.72730707 178.7578125 210.90625 C188.43749394 199.97499392 199.25738453 187.44876396 203 173 C202.70078608 170.74554562 202.70078608 170.74554562 202 169 C201.27296875 170.45019531 201.27296875 170.45019531 200.53125 171.9296875 C196.39776983 180.01756507 192.01216441 187.1307295 186 194 C185.41734375 194.70253906 184.8346875 195.40507813 184.234375 196.12890625 C180.308391 200.8458045 180.308391 200.8458045 178 202 C178.72703125 200.59814453 178.72703125 200.59814453 179.46875 199.16796875 C191.04502334 176.59525555 202.82786461 152.25796377 195.125 126.4375 C193.99133904 123.20866565 192.90756955 120.86135433 191 118 C191.02320313 119.19753906 191.04640625 120.39507812 191.0703125 121.62890625 C191.19227476 130.86468891 190.91071037 139.6648308 189.4375 148.80078125 C189.01193487 151.91272626 188.92408663 154.86382885 189 158 C186.01202437 155.16410696 183.71416714 151.97105164 181.3046875 148.64453125 C180.65886719 147.83048828 180.65886719 147.83048828 180 147 C179.67 147 179.34 147 179 147 C179.03480469 147.92039062 179.06960938 148.84078125 179.10546875 149.7890625 C179.6111031 173.43348784 170.29177462 191.52299759 158 211 C157.09000244 212.45140381 157.09000244 212.45140381 156.16162109 213.93212891 C148.52344206 226.09314641 140.66729028 238.10330839 132.625 250 C131.89321533 251.08692139 131.16143066 252.17384277 130.4074707 253.29370117 C129.729021 254.28990479 129.05057129 255.2861084 128.3515625 256.3125 C127.75166504 257.19550781 127.15176758 258.07851563 126.53369141 258.98828125 C125 261 125 261 123 262 C125.46155463 256.77061436 128.07076307 251.76934727 131.25 246.9375 C142.28382883 229.85674751 151.78641319 210.83994961 151 190 C146.70680843 193.98039073 143.52380337 198.30579243 140.3125 203.1875 C139.79139648 203.97777588 139.27029297 204.76805176 138.73339844 205.58227539 C121.70489615 231.73911206 103.33304409 267.86109011 105 300 C104.34 300 103.68 300 103 300 C102.98582031 299.32839844 102.97164063 298.65679688 102.95703125 297.96484375 C101.15797707 260.28195221 84.38283447 221.55605037 60 193 C59.01 192.505 59.01 192.505 58 192 C56.52969073 212.58432977 67.96259878 231.9642036 78.8359375 248.58203125 C80.8049453 251.61081345 82.44947154 254.73388682 84 258 C79.9088291 254.15340997 76.69740312 250.04392822 73.5 245.4375 C72.98445557 244.70007568 72.46891113 243.96265137 71.93774414 243.20288086 C65.7412578 234.27624558 59.83276352 225.16707198 54 216 C53.50580566 215.23010742 53.01161133 214.46021484 52.50244141 213.66699219 C38.653122 192.02422798 28.99726206 172.12689419 30 146 C26.4381743 148.73986593 24.0283808 150.9432384 22 155 C22 155.66 22 156.32 22 157 C21.01 157 20.02 157 19 157 C18.02182439 144.01315791 17.5027871 131.01264751 17 118 C16.67 118 16.34 118 16 118 Z M72 121 C78.43173088 129.43021181 86.68917046 132.90173491 97 135 C110.42025598 136.23499288 121.85707509 133.7252866 133 126 C135.28129053 123.42349764 135.28129053 123.42349764 137 121 C136.3922876 121.09087891 135.7845752 121.18175781 135.15844727 121.27539062 C113.33210859 124.48242541 93.84266867 123.97028695 72 121 Z M-75 141 C-74 143 -74 143 -74 143 Z M45 153 C41.18509739 166.01154283 40.77327055 176.25656934 46 189 C47.52706569 191.3014123 47.52706569 191.3014123 49 193 C48.86722656 192.20722656 48.73445312 191.41445313 48.59765625 190.59765625 C46.70827471 178.11670521 46.36804098 165.60465556 46 153 C45.67 153 45.34 153 45 153 Z M163 154 C163.02320313 155.06734375 163.04640625 156.1346875 163.0703125 157.234375 C163.24036045 168.9490848 162.35973977 180.36936878 161 192 C166.28581902 187.09671331 168.14512598 178.57119335 168.5 171.5 C168.22882414 165.45503818 165.96304567 159.6700471 164 154 C163.67 154 163.34 154 163 154 Z M66 164 C67 166 67 166 67 166 Z M204 164 C205 166 205 166 205 166 Z M141 165 C140.52433594 165.67482422 140.52433594 165.67482422 140.0390625 166.36328125 C128.52201258 182.23899371 128.52201258 182.23899371 123 185 C123.33 178.73 123.66 172.46 124 166 C113.49225802 175.00663599 108.02191026 185.54057077 105 199 C105 199.99 105 200.98 105 202 C104.34 202 103.68 202 103 202 C102.92523438 201.44054687 102.85046875 200.88109375 102.7734375 200.3046875 C100.87502197 188.72807517 96.21717798 177.5156227 88 169 C87.01 168.34 86.02 167.68 85 167 C85.33 173.27 85.66 179.54 86 186 C82.53353339 182.53353339 79.21020284 179.07439852 75.9375 175.4375 C73.03086466 172.2084028 70.10090025 169.04360879 67 166 C68.46097413 172.00729495 71.81172257 176.12826599 75.5 180.9375 C76.775675 182.64025307 78.04909435 184.34469826 79.3203125 186.05078125 C79.94711914 186.8907666 80.57392578 187.73075195 81.21972656 188.59619141 C91.0862233 201.91839751 99.33862599 215.97652685 104 232 C105.81672459 229.27491311 106.83393649 226.82782329 107.90161133 223.75878906 C112.74005859 209.90479428 119.92377429 198.53934618 129 187 C130.35156413 185.27914788 131.70105352 183.55681264 133.04541016 181.83032227 C134.30259402 180.21786739 135.56899266 178.6126093 136.8359375 177.0078125 C138.94582115 174.07530273 140.63100642 171.34332445 142 168 C141.505 166.515 141.505 166.515 141 165 Z M203 167 C204 169 204 169 204 169 Z M57 190 C58 192 58 192 58 192 Z M200 200 C201 202 201 202 201 202 Z M9 201 C10 203 10 203 10 203 Z " fill="#DBDFDE" transform="translate(301,388)"/>
<path d="M0 0 C14.16512174 4.358499 24.41185161 18.35369738 33.55908203 29.29492188 C43.89164645 41.52173142 55.54653954 51.96756192 68 62 C70.06537873 63.68400807 72.12627347 65.37340272 74.1875 67.0625 C75.10917969 67.81660156 76.03085937 68.57070312 76.98046875 69.34765625 C77.64691406 69.89292969 78.31335938 70.43820313 79 71 C78.91621094 70.04738281 78.83242188 69.09476562 78.74609375 68.11328125 C78.59333984 66.23189453 78.59333984 66.23189453 78.4375 64.3125 C78.28087891 62.45044922 78.28087891 62.45044922 78.12109375 60.55078125 C78.01506159 57.44164467 78.22771475 54.99189028 79 52 C80.485 52.495 80.485 52.495 82 53 C82.9921875 55.2578125 82.9921875 55.2578125 83.875 58.125 C86.78319667 66.51319413 90.09503167 71.2186769 97.94921875 75.59375 C108.97967571 80.6782116 121.23038681 83.19845644 133 86 C129.65587887 82.41133619 126.53887459 79.9418266 122.1875 77.6875 C121.21167969 77.17574219 120.23585938 76.66398437 119.23046875 76.13671875 C118.49441406 75.76160156 117.75835937 75.38648437 117 75 C117 74.34 117 73.68 117 73 C123.80599254 70.42658989 133.26255256 74.76467219 139.7109375 77.51171875 C147.82439744 81.35352263 154.34511655 86.01060489 161 92 C161.46148437 91.63648437 161.92296875 91.27296875 162.3984375 90.8984375 C174.69038114 81.4244098 190.91869553 71.45340826 207 72 C205.52792153 75.87257007 203.58154641 77.11034898 200 79.0625 C196.62702245 80.91077403 195.17383334 81.73925 193 85 C197.12990018 83.95598513 201.25278189 82.88641119 205.375 81.8125 C206.53128906 81.52052734 207.68757812 81.22855469 208.87890625 80.92773438 C219.50038393 78.13734617 230.0801421 74.92400582 236 65 C237.64843872 60.73460366 238.91059837 56.43880415 240 52 C240.99 52 241.98 52 243 52 C243.78441153 58.56492112 244.10914408 64.46837378 243 71 C251.85310721 63.87702185 260.45981187 56.49321716 269 49 C270.39992188 47.77216797 270.39992188 47.77216797 271.828125 46.51953125 C279.3312839 39.85398915 286.71644431 33.07768039 292.875 25.125 C301.3044464 14.35026408 311.84303936 2.35949344 326 0 C328.9801361 -0.30869936 331.22053877 -0.16913845 334 1 C350.79905933 15.29393645 356.80150186 46.40285327 360 67 C360.103125 67.65508545 360.20625 68.3101709 360.3125 68.98510742 C361.36879544 76.874314 361.24288471 84.86712661 361.25 92.8125 C361.25100708 93.59178864 361.25201416 94.37107727 361.25305176 95.17398071 C361.24240961 107.35908312 360.58275236 119.05755346 358 131 C357.86078125 131.70560059 357.7215625 132.41120117 357.578125 133.13818359 C355.16807087 145.26934728 351.19558273 159.12159516 341 167 C340.01 167 339.02 167 338 167 C338.62526995 161.3499703 340.07338553 156.27422557 341.8125 150.875 C344.08111705 143.58579619 345.90545162 136.31630984 347.3125 128.8125 C347.47145752 127.96478027 347.63041504 127.11706055 347.79418945 126.24365234 C349.65417102 115.88133613 350.24062631 105.78237464 350.25 95.25 C350.25067474 94.56569916 350.25134949 93.88139832 350.25204468 93.17636108 C350.23345267 81.2449849 349.40605323 69.70449493 347 58 C346.82307617 57.1327832 346.64615234 56.26556641 346.46386719 55.37207031 C343.58786928 41.75702669 339.97481139 29.20151165 330 19 C326.19526876 17.09763438 321.94616534 17.45344882 317.94140625 18.578125 C311.83420665 21.19719695 308.72982494 25.6875841 305 31 C292.9168106 47.47916877 279.99878664 62.88249449 263.93359375 75.63671875 C259.78553929 78.97836049 255.78142405 82.47744165 251.77587891 85.98779297 C248.61711629 88.75140908 245.43997804 91.47458942 242.17578125 94.11328125 C234.25680552 100.56562611 227.33556477 106.9933057 224 117 C223.34 117 222.68 117 222 117 C221.18565857 114.14839609 220.88118758 111.63373869 220.90234375 108.671875 C220.90556641 107.87265625 220.90878906 107.0734375 220.91210938 106.25 C220.92048828 105.425 220.92886719 104.6 220.9375 103.75 C220.94201172 102.90953125 220.94652344 102.0690625 220.95117188 101.203125 C220.96292039 99.13538599 220.98085478 97.06768376 221 95 C211.15288397 104.13384404 202.08473816 114.24753299 200.6875 128.09765625 C200.21230806 140.79419092 204.9344519 149.42023023 213 159 C214.92733013 160.80534721 216.9105149 162.38064904 219 164 C219 164.66 219 165.32 219 166 C211.61564319 165.30235001 207.88723294 161.26929675 203 156 C194.4838641 144.87466502 192.37199534 132.61502933 192 119 C186.26805971 133.98302531 185.08461402 146.70032885 191 162 C195.48354312 170.74039024 201.52243626 176.0877919 210.83203125 179.28515625 C216.51965605 180.56855371 222.20781355 180.30440688 228 180 C227 183 227 183 224.88671875 184.1640625 C216.68823833 186.53818267 206.92352319 185.96242635 199.20703125 182.328125 C195.33886421 180.00037846 192.15661775 177.21115974 189 174 C188.18208984 173.19755859 188.18208984 173.19755859 187.34765625 172.37890625 C178.63018076 163.12906584 175.85657501 150.82029393 175.375 138.5 C175.33632813 137.67757812 175.29765625 136.85515625 175.2578125 136.0078125 C175.16468308 134.0055299 175.08131015 132.00279738 175 130 C171.78053696 148.33944127 172.12218175 167.45929097 182.703125 183.59765625 C187.30789256 189.75403027 192.33884674 194.98314337 200 197 C207.60705958 198.01183645 213.9835664 196.38363655 221.15234375 193.875 C224 193 224 193 228 193 C228 193.66 228 194.32 228 195 C226.47632813 195.81791016 226.47632813 195.81791016 224.921875 196.65234375 C204.67310494 207.67804598 188.11650443 220.14762244 181 243 C180.34 243 179.68 243 179 243 C178.34 241.68 177.68 240.36 177 239 C175.39503347 247.22419025 174.66149359 255.12593515 174.6875 263.5 C174.67138672 264.53769531 174.65527344 265.57539063 174.63867188 266.64453125 C174.63232659 276.83505418 176.60581792 286.13119448 181.3125 295.1875 C182.14201172 296.81751953 182.14201172 296.81751953 182.98828125 298.48046875 C184.48037562 301.24141829 186.23232691 303.70871653 188.0703125 306.25 C191.41912052 311.20284573 192.50059479 315.99578778 193.5625 321.8125 C196.99208161 338.34994253 203.39834492 349.94626143 214 363 C213.67 363.66 213.34 364.32 213 365 C211.54877771 365.34401485 210.08864914 365.65092792 208.625 365.9375 C206.21227684 366.62891911 206.21227684 366.62891911 204 368 C200.30363901 375.37240765 200.30668412 384.61280347 199.8125 392.6875 C199.6897168 394.47317383 199.6897168 394.47317383 199.56445312 396.29492188 C199.36638041 399.19610459 199.17841988 402.09755387 199 405 C198.01 404.67 197.02 404.34 196 404 C195.84966309 403.13947021 195.69932617 402.27894043 195.54443359 401.39233398 C191.68803598 379.14612537 191.68803598 379.14612537 184 358 C180.96999108 349.87299933 179.8534962 342.8528153 179.9375 334.1875 C179.94201172 333.30384766 179.94652344 332.42019531 179.95117188 331.50976562 C179.96290134 329.33981441 179.98083505 327.16989828 180 325 C169.17488538 337.39443597 164.58615497 351.82121935 163 368 C162.34 368 161.68 368 161 368 C160.76925781 366.99582031 160.53851563 365.99164063 160.30078125 364.95703125 C157.05572565 351.18966702 153.32435384 336.32435384 143 326 C143.03480469 327.25554687 143.06960938 328.51109375 143.10546875 329.8046875 C143.4425375 346.83517128 143.4425375 346.83517128 140 355 C139.01700186 357.37351371 138.03620047 359.74767707 137.0625 362.125 C136.80090088 362.76228027 136.53930176 363.39956055 136.26977539 364.05615234 C131.70147349 375.45347627 129.60244051 387.48331107 127.61328125 399.55078125 C127 403 127 403 126 406 C125.34 406 124.68 406 124 406 C123.95512451 405.29504395 123.91024902 404.59008789 123.86401367 403.86376953 C123.65046121 400.61660194 123.41909156 397.37092894 123.1875 394.125 C123.11724609 393.01640625 123.04699219 391.9078125 122.97460938 390.765625 C122.11378466 378.95187784 122.11378466 378.95187784 117.125 368.4375 C114.72774802 366.81582954 112.86011611 366.31779068 110 366 C110.53218796 361.71968823 111.9210148 359.50223089 114.625 356.1875 C122.82705452 345.23179342 126.51026502 333.33318602 129 320 C130.50175919 313.06424372 132.96582928 308.31330368 137.1640625 302.609375 C147.81256742 287.47490418 151.26006357 268.96192001 148.68798828 250.79638672 C147.98733489 246.81251387 147.06881222 242.89989222 146 239 C145.34 240.32 144.68 241.64 144 243 C143.34 243 142.68 243 142 243 C141.72027344 242.24976563 141.44054687 241.49953125 141.15234375 240.7265625 C138.26900274 233.36523529 134.839933 227.23837865 130 221 C129.56300781 220.39800781 129.12601563 219.79601562 128.67578125 219.17578125 C121.36798674 209.76123517 110.20001224 203.25963064 100.11767578 197.22338867 C95.09841692 194.19683384 95.09841692 194.19683384 94 192 C98.03023783 192.71968533 101.84195668 193.85100657 105.75 195.0625 C115.07474816 197.70451198 121.01341697 198.34751773 129.65234375 193.52734375 C139.50495336 187.11740971 145.11050184 176.69240347 147.9375 165.4375 C149.90017527 154.73309315 150.15442553 142.70263007 148 132 C148.02320313 132.58265625 148.04640625 133.1653125 148.0703125 133.765625 C148.39976278 148.73208079 145.23416022 161.79692521 135 173 C127.70542258 180.50794714 121.16735161 185.12740257 110.5 185.4375 C104.79702617 185.26996258 100.26714554 184.14256768 95 182 C95 181.34 95 180.68 95 180 C95.82242188 180.03480469 96.64484375 180.06960937 97.4921875 180.10546875 C108.90381214 180.38219406 118.17477267 178.65203243 127 171 C134.93179226 162.31954367 136.68980519 148.98225631 136.40625 137.7109375 C135.76575515 131.86026339 134.0733963 126.48894645 132 121 C131.67 121 131.34 121 131 121 C131.061875 122.0725 131.12375 123.145 131.1875 124.25 C131.09903193 136.85669939 125.66374697 150.63293082 116.875 159.6875 C109.88664347 166 109.88664347 166 105 166 C106.50519923 162.4771933 108.58182187 160.22263075 111.25 157.5 C118.82067967 149.26993855 123.43777862 139.9315299 123.2734375 128.70703125 C121.89245683 115.03532265 111.47454815 103.95539482 102 95 C102 102.26 102 109.52 102 117 C101.01 117 100.02 117 99 117 C98.69707031 116.33613281 98.39414062 115.67226562 98.08203125 114.98828125 C95.58274978 109.72056492 93.28869248 105.92109027 89 102 C89 101.34 89 100.68 89 100 C88.13761719 99.61714844 88.13761719 99.61714844 87.2578125 99.2265625 C84.76000871 97.86962411 82.95929074 96.30546854 80.875 94.375 C77.7509605 91.53588919 74.58076055 88.84300252 71.25 86.25 C65.3937423 81.62137396 60.00116953 76.53376354 54.55322266 71.43994141 C52.29306166 69.34462082 49.99036442 67.29816974 47.6875 65.25 C37.54006214 56.11730592 29.08260944 46.03647916 20.75 35.25 C20.32235352 34.69747559 19.89470703 34.14495117 19.45410156 33.57568359 C17.29639215 30.76625441 15.27964963 27.92230328 13.375 24.9375 C9.96125795 20.7152401 6.26666614 18.53038122 0.8828125 17.65625 C-3.68127085 17.44957453 -6.35027327 18.39633668 -10 21 C-29.12010875 43.52283997 -29.16262264 83.32438274 -27.25048828 110.93896484 C-25.82908274 128.30892847 -22.27195248 145.68606167 -15.69921875 161.87109375 C-15 164 -15 164 -15 168 C-19.72685201 166.88779953 -21.7967245 164.32388233 -24.45703125 160.5078125 C-43.02073945 130.33591208 -42.34697469 86.45493313 -34.93359375 52.92578125 C-25.06912016 11.8982542 -25.06912016 11.8982542 -11.09375 1.12109375 C-7.27239498 -0.92504224 -4.17575854 -0.94967084 0 0 Z M176 123 C177 125 177 125 177 125 Z M146 124 C147 127 147 127 147 127 Z M161 150 C160.79020508 150.87398437 160.79020508 150.87398437 160.57617188 151.765625 C156.07243287 170.18606234 150.36663062 190.49912443 134 202 C131.37582006 203.4850368 128.74816318 204.74645188 126 206 C126 206.33 126 206.66 126 207 C133.08859714 207.46146383 138.34072569 207.5577124 144 203 C144.56074219 202.58363281 145.12148438 202.16726562 145.69921875 201.73828125 C153.51356134 195.04779916 158.03547626 183.64598841 161 174 C162.64784853 177.15338287 163.95163075 180.37665842 165.25 183.6875 C169.23309523 193.24925785 174.24498016 201.18947599 183.4375 206.375 C187.031855 207.25167195 190.30366691 207.12529943 194 207 C194 206.34 194 205.68 194 205 C192.33572064 203.71181224 190.61641121 202.49433774 188.875 201.3125 C171.79117381 189.1004043 166.10385201 169.78523774 162 150 C161.67 150 161.34 150 161 150 Z M161 189 C160.31164062 190.30324219 160.31164062 190.30324219 159.609375 191.6328125 C158.99578125 192.78523437 158.3821875 193.93765625 157.75 195.125 C157.14671875 196.26195312 156.5434375 197.39890625 155.921875 198.5703125 C154.08430863 201.8495468 152.12589064 204.90523 150 208 C155.01656959 206.5666944 157.01452882 204.09436048 160 200 C160 199.34 160 198.68 160 198 C160.680625 198.70125 161.36125 199.4025 162.0625 200.125 C164.20945235 202.25360233 166.38740523 204.34168671 168.625 206.375 C169.19476563 206.89835937 169.76453125 207.42171875 170.3515625 207.9609375 C170.89554688 208.30382812 171.43953125 208.64671875 172 209 C172.99 208.67 173.98 208.34 175 208 C174.29875 207.360625 173.5975 206.72125 172.875 206.0625 C168.02151362 201.20901362 164.38349115 195.41622261 162 189 C161.67 189 161.34 189 161 189 Z M144 232 C145 235 145 235 145 235 Z M150 321 C150.53625 321.9075 151.0725 322.815 151.625 323.75 C154.65782214 329.04107459 157.30602027 334.53122114 160 340 C160.66 340 161.32 340 162 340 C162.47050781 339.04738281 162.94101562 338.09476562 163.42578125 337.11328125 C164.05457916 335.84630039 164.68349148 334.57937631 165.3125 333.3125 C165.62123047 332.68666016 165.92996094 332.06082031 166.24804688 331.41601562 C168.0238106 327.84579593 169.89532729 324.38690408 172 321 C167.7257442 322.5830577 165.73468206 325.50568404 163 329 C160.1040862 328.91482606 158.45083874 328.45855481 156.40234375 326.375 C155.35631791 325.10023632 154.33195129 323.80733454 153.33203125 322.49609375 C152.89246094 322.00238281 152.45289063 321.50867188 152 321 C151.34 321 150.68 321 150 321 Z M181 322 C182 324 182 324 182 324 Z " fill="#DBDFDE" transform="translate(244,16)"/>
<path d="M0 0 C3.47284646 2.71977402 4.59553323 4.98948549 5.5 9.25 C5.74363281 10.31089844 5.98726563 11.37179688 6.23828125 12.46484375 C6.7658638 14.91336789 7.28342393 17.36406494 7.79296875 19.81640625 C10.9306669 34.20935423 16.87978973 45.41037413 26.875 56.25830078 C29.96775246 59.62603221 32.13172234 62.75971111 34 67 C28.22192976 67.2358396 23.48675196 66.86783046 18 65 C24.8087848 76.54533074 35.13599696 83.38020908 47 89 C47 89.66 47 90.32 47 91 C39.53887532 93.48704156 30.67942917 92.02392389 23 91 C29.67195609 96.22594279 35.92141599 100.3363454 44 103 C44 103.66 44 104.32 44 105 C37.73 105 31.46 105 25 105 C28.39453013 109.30570309 28.39453013 109.30570309 32.25 112.8125 C33.1575 113.534375 34.065 114.25625 35 115 C34.67 115.66 34.34 116.32 34 117 C30.04 117 26.08 117 22 117 C25.00078791 122.37641167 28.23799532 125.65189983 34 128 C39.25911345 129.37460144 44.62907219 130.1982717 50 131 C49.67 131.99 49.34 132.98 49 134 C46.05859375 135.38671875 46.05859375 135.38671875 42.4375 136.6875 C41.23996094 137.12449219 40.04242188 137.56148437 38.80859375 138.01171875 C37.88175781 138.33785156 36.95492187 138.66398438 36 139 C37.258125 138.96519531 38.51625 138.93039063 39.8125 138.89453125 C50.94084273 138.68497438 61.16249908 139.45712269 72 142 C72 142.66 72 143.32 72 144 C71.1793103 144.05945801 71.1793103 144.05945801 70.34204102 144.12011719 C45.6052617 145.99016295 24.61336244 151.76484942 3 164 C4.16273438 163.7834375 5.32546875 163.566875 6.5234375 163.34375 C20.50267399 160.86548552 33.90947895 160.03902962 48 162 C48.33 162.99 48.66 163.98 49 165 C48.15574463 165.05945801 48.15574463 165.05945801 47.29443359 165.12011719 C18.46321572 167.24705847 -1.21302341 177.61413574 -23.83984375 194.9296875 C-35.835019 204.05947907 -50.30442692 214 -66 214 C-66 213.01 -66 212.02 -66 211 C-64.65808594 210.38125 -64.65808594 210.38125 -63.2890625 209.75 C-50.78089242 203.83796236 -41.60411458 195.97193173 -32 186 C-33.21833458 182.63947523 -34.52688563 180.11291273 -36.8125 177.375 C-44.17409106 167.75106633 -48.43297378 155.16884203 -48 143 C-44.00003714 144.33332095 -43.16217663 146.4957827 -41 150 C-41.0721875 149.40316406 -41.144375 148.80632812 -41.21875 148.19140625 C-41.86549626 142.14612523 -42.13543562 136.13776201 -42.1875 130.0625 C-42.20039063 129.329104 -42.21328125 128.59570801 -42.2265625 127.84008789 C-42.23372636 123.95682553 -41.88045243 121.37195818 -40 118 C-37.61934115 123.15593572 -35.47425469 128.31923973 -33.61621094 133.68530273 C-29.72341557 144.8966007 -25.00536267 158.00546896 -17 167 C-14.91134597 167.22872051 -14.91134597 167.22872051 -13.5546875 165.63671875 C0.19510732 149.91198478 0.19510732 149.91198478 4 130 C2.43208341 122.20013301 -1.08317741 115.94154177 -5.25 109.25 C-6.42369234 107.30917468 -7.59427854 105.36646749 -8.76171875 103.421875 C-9.32165527 102.49052734 -9.8815918 101.55917969 -10.45849609 100.59960938 C-20.00359212 84.50265301 -24.19369825 68.9558019 -24.29516602 50.32714844 C-24.30658187 48.87685306 -24.3268649 47.42659612 -24.35668945 45.9765625 C-24.65730789 31.3050393 -23.00161583 15.27107996 -13.6640625 3.28515625 C-9.85616873 -0.51221847 -5.08449776 -1.3404585 0 0 Z " fill="#DBDFDE" transform="translate(247,36)"/>
<path d="M0 0 C4.70265114 0.15390495 7.32259828 2.10063433 10.62109375 5.328125 C21.14055449 18.72930884 21.38847055 42.77829291 20.1015625 59.01171875 C17.731377 78.62164969 9.54285686 95.21631045 -0.86328125 111.71484375 C-6.79523705 121.30330446 -8.80410911 129.22399619 -7.625 140.5625 C-4.36763537 151.54051187 4.42545292 160.61295292 12.375 168.5625 C22.3633826 156.06899251 28.32269975 140.92862498 33.08007812 125.79736328 C33.33982422 124.99540527 33.59957031 124.19344727 33.8671875 123.3671875 C34.08745605 122.65546387 34.30772461 121.94374023 34.53466797 121.21044922 C35.375 119.5625 35.375 119.5625 38.375 118.5625 C38.60635477 129.78320643 38.20650372 140.47536142 36.375 151.5625 C38.355 148.5925 40.335 145.6225 42.375 142.5625 C43.035 142.8925 43.695 143.2225 44.375 143.5625 C43.07712266 156.48315948 39.83382811 167.36208941 32.70703125 178.34375 C31.30552503 180.67822371 30.32181198 183.01373599 29.375 185.5625 C39.17027473 196.86295878 47.85576743 204.33321476 61.375 210.5625 C62.71134205 211.22311497 64.04629138 211.88666302 65.375 212.5625 C65.375 213.2225 65.375 213.8825 65.375 214.5625 C45.02866847 212.70019916 30.88623841 203.46865507 14.8125 191.5 C-5.7620194 176.20422852 -24.68838725 166.96317369 -50.625 165.5625 C-50.625 164.9025 -50.625 164.2425 -50.625 163.5625 C-35.42847543 159.64081624 -19.6014113 161.36910484 -4.625 165.5625 C-24.39100714 151.83032662 -49.02299633 146.21316205 -72.625 144.5625 C-72.625 143.9025 -72.625 143.2425 -72.625 142.5625 C-61.31682292 138.32193359 -49.41277645 139.19580128 -37.625 140.5625 C-45.545 137.0975 -45.545 137.0975 -53.625 133.5625 C-53.625 132.5725 -53.625 131.5825 -53.625 130.5625 C-52.3565625 130.52382813 -52.3565625 130.52382813 -51.0625 130.484375 C-42.27414716 130.04495736 -36.37215706 128.97657643 -29.8125 123 C-29.090625 122.195625 -28.36875 121.39125 -27.625 120.5625 C-26.635 119.5725 -25.645 118.5825 -24.625 117.5625 C-29.575 117.2325 -34.525 116.9025 -39.625 116.5625 C-39.625 115.9025 -39.625 115.2425 -39.625 114.5625 C-37.6511871 112.93527924 -35.69541151 111.43013463 -33.625 109.9375 C-31.645 108.49375 -29.665 107.05 -27.625 105.5625 C-33.565 105.5625 -39.505 105.5625 -45.625 105.5625 C-45.625 104.5725 -45.625 103.5825 -45.625 102.5625 C-45.00753906 102.35496094 -44.39007812 102.14742188 -43.75390625 101.93359375 C-37.05741945 99.49758105 -32.01398566 96.19650699 -26.625 91.5625 C-27.26050781 91.72492188 -27.89601563 91.88734375 -28.55078125 92.0546875 C-32.65569168 92.73275403 -36.65982375 92.70738512 -40.8125 92.6875 C-41.63169922 92.69136719 -42.45089844 92.69523437 -43.29492188 92.69921875 C-49.37156792 92.68921604 -49.37156792 92.68921604 -51.625 91.5625 C-51.625 90.9025 -51.625 90.2425 -51.625 89.5625 C-50.04912109 88.81806641 -50.04912109 88.81806641 -48.44140625 88.05859375 C-35.99170232 82.08071852 -27.11422612 76.53081312 -19.625 64.5625 C-20.181875 64.83964844 -20.73875 65.11679688 -21.3125 65.40234375 C-26.52319259 67.87566236 -30.87216553 69.14411204 -36.625 69.5625 C-36.25051229 64.10800516 -34.10061561 61.29398788 -30.5 57.4375 C-20.84848631 46.52342001 -15.79079905 35.3606296 -12.63671875 21.171875 C-12.46744873 20.41801514 -12.29817871 19.66415527 -12.1237793 18.88745117 C-11.80010328 17.41926434 -11.48955807 15.94809767 -11.19458008 14.47387695 C-9.79239741 7.96500816 -7.14535519 1.10876201 0 0 Z " fill="#DBDFDE" transform="translate(567.625,35.4375)"/>
<path d="M0 0 C-0.52207031 0.3403125 -1.04414063 0.680625 -1.58203125 1.03125 C-4.06800406 2.66824786 -6.53438359 4.3325022 -9 6 C-9.91265625 6.60328125 -10.8253125 7.2065625 -11.765625 7.828125 C-23.3737726 15.80467335 -32.13824256 26.95137256 -35 41 C-35.13818513 43.69222756 -35.09470906 46.30079185 -35 49 C-34.5153125 48.35933594 -34.030625 47.71867187 -33.53125 47.05859375 C-21.45813033 31.47962587 -9.0006651 26.47904269 9.81787109 22.17944336 C23.17957499 19.10425838 34.4695418 15.32466305 44 5 C43.86405152 10.43793922 41.65397623 13.23463354 38.0859375 17.04296875 C32.03072459 22.72398311 25.83565688 25.56287558 18 28 C18.61407715 28.15557373 19.2281543 28.31114746 19.86083984 28.47143555 C22.70203591 29.19840825 25.53838943 29.94284421 28.375 30.6875 C29.34050781 30.93177734 30.30601562 31.17605469 31.30078125 31.42773438 C40.7935969 33.94428618 50.9726099 37.82582368 58 45 C58.6171875 47 58.6171875 47 59 49 C59.515625 49.969375 60.03125 50.93875 60.5625 51.9375 C61.99570279 54.99084508 62.29180612 56.692864 62 60 C59.85603602 58.98622518 57.88473705 57.92251049 55.9140625 56.59765625 C48.98415193 51.95012237 42.17304357 50.34254606 34 49 C35.01578125 49.43828125 36.0315625 49.8765625 37.078125 50.328125 C54.53282078 58.21233316 63.03239972 69.46060929 72 86 C73.08998011 87.9657472 74.18779291 89.92661095 75.29394531 91.88330078 C76.24400701 93.56617613 77.17923596 95.25740136 78.11328125 96.94921875 C79.56575407 99.29783423 80.9491784 101.19897687 82.73046875 103.26953125 C85 106 85 106 85 108 C79.43660974 107.48113459 75.20794739 106.03755115 70.25 103.5 C69.55116699 103.14470215 68.85233398 102.7894043 68.13232422 102.42333984 C61.7230735 99.04857694 56.30635812 94.93441713 51 90 C50.17242188 89.24074219 49.34484375 88.48148437 48.4921875 87.69921875 C42.95555172 82.396892 38.19325023 76.65879697 33.578125 70.55786133 C31.2251576 67.28951668 31.2251576 67.28951668 28 65 C28.34933594 66.14597656 28.69867187 67.29195313 29.05859375 68.47265625 C29.51849292 70.0025249 29.97811354 71.53247731 30.4375 73.0625 C30.66759766 73.81466797 30.89769531 74.56683594 31.13476562 75.34179688 C35.25337219 89.13017538 36.0806973 103.72008248 30 117 C29.02744178 118.68282747 28.03465912 120.35462518 27 122 C25.515 121.505 25.515 121.505 24 121 C24 119.35 24 117.7 24 116 C23.59910156 116.70125 23.19820312 117.4025 22.78515625 118.125 C18.74968082 124.85994312 14.45043403 130.41506828 8 135 C7.34 135 6.68 135 6 135 C6.74250597 130.91621717 7.82923301 126.98060777 9 123 C7.55836993 124.72572488 6.12186835 126.4557347 4.6875 128.1875 C3.88699219 129.15042969 3.08648437 130.11335937 2.26171875 131.10546875 C-1.35705008 135.73674285 -3.32993481 138.87691785 -3.6875 144.8125 C-3.75324219 145.78832031 -3.81898438 146.76414062 -3.88671875 147.76953125 C-3.92410156 148.50558594 -3.96148437 149.24164063 -4 150 C-4.99 150 -5.98 150 -7 150 C-7.17015625 149.20335937 -7.3403125 148.40671875 -7.515625 147.5859375 C-9.84391757 137.40584976 -13.93598312 131.86759221 -21.07421875 124.3671875 C-22.90580019 122.11579125 -23.72674908 120.85960264 -24 118 C-23 117 -23 117 -21.15234375 116.90234375 C-19.1015625 116.93489583 -17.05078125 116.96744792 -15 117 C-16.32 115.35 -17.64 113.7 -19 112 C-16.59461014 108.3919152 -15.55937614 108.3331229 -11.5 107.1875 C-0.65129053 103.7444964 7.58006442 98.49100799 13.43359375 88.5703125 C17.20185348 81.03379304 18.63067328 73.24935851 20 65 C19.45730469 65.27714844 18.91460938 65.55429687 18.35546875 65.83984375 C17.64003906 66.20207031 16.92460938 66.56429687 16.1875 66.9375 C15.47980469 67.29714844 14.77210938 67.65679687 14.04296875 68.02734375 C12 69 12 69 9 70 C7.92832879 71.82452134 7.92832879 71.82452134 7 74 C0.44340151 84.74820691 -6.71403804 91.61854258 -19 95 C-19.96679688 95.21140625 -20.93359375 95.4228125 -21.9296875 95.640625 C-30.32586793 97.4779571 -36.60630568 100.15976695 -42.375 106.6875 C-46.93503122 115.98294825 -47.40370745 124.75779243 -47 135 C-50 134 -50 134 -51.5 131.2265625 C-59 113.21875 -59 113.21875 -59 106 C-58.01 106.33 -57.02 106.66 -56 107 C-54.83203125 109.94140625 -54.83203125 109.94140625 -53.8125 113.5625 C-53.46832031 114.76003906 -53.12414062 115.95757812 -52.76953125 117.19140625 C-52.38861328 118.58166016 -52.38861328 118.58166016 -52 120 C-50.8861909 117.77238179 -50.68250223 116.10193977 -50.38671875 113.6328125 C-48.19652647 96.30013864 -44.67731832 76.89270504 -29.97265625 65.41796875 C-20.44654423 58.72526441 -11.08951649 56.1666576 0.5625 57.48046875 C6.58929241 58.13435603 12.5690203 58.11032973 18.625 58.0625 C19.72457031 58.05798828 20.82414063 58.05347656 21.95703125 58.04882812 C24.63808003 58.03717139 27.31900932 58.02081017 30 58 C27.00596164 56.52919673 24.00380994 55.07572895 21 53.625 C20.16082031 53.2125 19.32164062 52.8 18.45703125 52.375 C5.95458517 46.36607243 -7.40407466 44.76236908 -20.875 48.625 C-34.00632232 53.3241141 -43.45266522 60.22615775 -51 72 C-51.66 72 -52.32 72 -53 72 C-57.79083746 58.90504427 -56.91428635 45.70645461 -51.74609375 32.890625 C-45.0732176 18.56303261 -33.62719057 8.82286246 -19 3 C-4.65261007 -1.80025616 -4.65261007 -1.80025616 0 0 Z M-13 65 C-13 67.62834278 -12.80210238 70.08186701 -12.5 72.6875 C-12.4071875 73.49574219 -12.314375 74.30398438 -12.21875 75.13671875 C-12.1465625 75.75160156 -12.074375 76.36648438 -12 77 C-15 79 -15 79 -18.3125 78.875 C-22.48775725 77.88426099 -24.62018343 76.55547107 -28 74 C-30.08715001 76.75371613 -30.08715001 76.75371613 -30.5625 79.375 C-29.90904988 82.42443389 -29.33427382 82.89061941 -26.9375 84.75 C-23.31168465 87.05534739 -20.36116894 88 -16 88 C-9.95102578 86.30204232 -6.44810416 83.0911605 -3 78 C-1.8154869 74.44646071 -1.73358106 71.72986522 -2 68 C-2.85219923 65.89757556 -2.85219923 65.89757556 -5 65 C-7.71882023 64.76404716 -10.25957022 64.86522477 -13 65 Z " fill="#DBDFDE" transform="translate(502,230)"/>
<path d="M0 0 C15.57385872 0.54645118 29.90441561 8.95544665 40.4453125 20.1015625 C49.58885069 31.26678753 53.83832796 44.68854414 53 59 C52.3423107 64.09398975 51.62677868 69.11966395 50 74 C49.34 74 48.68 74 48 74 C46.87503075 72.52477647 45.82495715 70.99209667 44.8125 69.4375 C36.9425556 57.95644942 27.50430573 51.19939789 13.90234375 47.69921875 C-3.95304915 44.49990411 -18.56475754 48.66183876 -34 58 C-31.62352406 59.18823797 -30.38270226 59.05362981 -27.74609375 58.9140625 C-26.89080078 58.87023437 -26.03550781 58.82640625 -25.15429688 58.78125 C-24.25775391 58.7296875 -23.36121094 58.678125 -22.4375 58.625 C-21.13329102 58.55925781 -21.13329102 58.55925781 -19.80273438 58.4921875 C-14.85211258 58.2263823 -9.94440251 57.82131266 -5.02294922 57.22119141 C6.1892373 55.99523908 16.60237602 57.97274617 25.68359375 64.92578125 C41.63071195 79.2055785 44.76094026 99.76007838 47 120 C48.98 114.555 48.98 114.555 51 109 C51.99 109.33 52.98 109.66 54 110 C48.81321185 126.8929385 48.81321185 126.8929385 46 134 C45.34 134 44.68 134 44 134 C43.88785156 132.36804688 43.88785156 132.36804688 43.7734375 130.703125 C42.84726978 119.62954528 40.71362063 110.77418528 33.5 101.9375 C28.27049003 97.88462978 23.02406444 96.40667896 16.6875 95.125 C5.83612637 92.71564688 -1.28494152 89.11096527 -8 80 C-8.9877872 78.44293544 -9.96701508 76.88040709 -10.9375 75.3125 C-13.80010235 70.85270442 -17.16679255 68.16623487 -22 66 C-22.66 66 -23.32 66 -24 66 C-21.61944644 78.85498921 -19.31241408 90.00969029 -9 99 C-8.236875 99.680625 -7.47375 100.36125 -6.6875 101.0625 C-0.0003671 105.88345628 7.03849523 108.06816428 15 110 C14.25 114.75 14.25 114.75 12 117 C14.31 117 16.62 117 19 117 C18.57192682 121.99418712 17.51116737 123.9870005 13.75 127.25 C6.58278132 134.04119608 3.70099112 141.41259549 2 151 C1.34 151 0.68 151 0 151 C-0.12955078 149.7315625 -0.12955078 149.7315625 -0.26171875 148.4375 C-1.64714976 137.25236893 -5.56542609 131.17547646 -13 123 C-12.7834375 124.051875 -12.7834375 124.051875 -12.5625 125.125 C-11.98521625 128.07556141 -11.48304859 131.03270151 -11 134 C-18.65919568 131.37399005 -22.19233003 126.59762525 -26.546875 120.046875 C-27.02640625 119.37140625 -27.5059375 118.6959375 -28 118 C-28.33 118 -28.66 118 -29 118 C-29.495 119.98 -29.495 119.98 -30 122 C-32.55872472 121.00225828 -33.78313716 120.35661889 -35.23046875 117.9765625 C-35.54628906 117.20054687 -35.86210937 116.42453125 -36.1875 115.625 C-36.67283203 114.46871094 -36.67283203 114.46871094 -37.16796875 113.2890625 C-42.70178302 98.06457817 -37.00139503 79.98394735 -33 65 C-33.58265625 65.78761719 -34.1653125 66.57523437 -34.765625 67.38671875 C-46.3936926 82.9213161 -62.7767486 104.08404276 -82.625 108.875 C-83.40875 108.91625 -84.1925 108.9575 -85 109 C-83.41974984 105.64986966 -81.50013948 102.61497133 -79.5 99.5 C-75.88402794 93.77842931 -72.88880519 87.83629457 -69.9375 81.75 C-62.5891689 66.74333442 -54.02827216 57.54176158 -39 50 C-43.34653254 50.55856474 -46.75843144 51.63906476 -50.6875 53.5625 C-55.67988669 56 -55.67988669 56 -59 56 C-59 55.34 -59 54.68 -59 54 C-56.69833213 52.20916148 -54.39761099 50.52740758 -52 48.875 C-51.33226562 48.40707031 -50.66453125 47.93914062 -49.9765625 47.45703125 C-48.32185734 46.29873764 -46.66144693 45.14860235 -45 44 C-52.58701633 46.44791509 -59.42871432 49.69330323 -66.34765625 53.609375 C-69 55 -69 55 -71 55 C-70.07171361 49.15953149 -65.54995823 46.31913619 -61 43 C-48.78778565 35.33724764 -36.09510178 30.86680036 -22 28 C-22.845625 27.70867187 -23.69125 27.41734375 -24.5625 27.1171875 C-35.13275501 23.29748171 -43.18696136 18.93647435 -49 9 C-49.66015625 6.7578125 -49.66015625 6.7578125 -50 5 C-49.01 5 -48.02 5 -47 5 C-46.195625 6.03125 -45.39125 7.0625 -44.5625 8.125 C-36.14976426 18.28190159 -21.32253132 20.22774689 -9.12426758 23.03173828 C3.21360736 25.89735989 14.02869001 29.14638379 23 38.625 C24.3303125 40.00558594 24.3303125 40.00558594 25.6875 41.4140625 C27.59243649 43.54424486 29.34172977 45.67623975 31 48 C31.9068758 36.3869516 28.08476367 27.10105412 21 18 C18.66666667 15.33333333 18.66666667 15.33333333 16 13 C15.40316406 12.44570312 14.80632812 11.89140625 14.19140625 11.3203125 C10.19052122 7.68598029 6.1442012 4.6606707 1.46875 1.9453125 C0.9840625 1.63335937 0.499375 1.32140625 0 1 C0 0.67 0 0.34 0 0 Z M-2 66 C-3.78739267 71.49966975 -2.39441485 75.9503002 0 81 C2.95162625 84.96361239 5.83224382 86.91263301 10.73828125 87.921875 C15.05248019 88.07089742 19.07921169 86.7198997 23 85 C25.29827312 83.12061828 25.29827312 83.12061828 25.3125 80.0625 C25.27988518 77.00251018 25.27988518 77.00251018 23.5 75.125 C23.005 74.75375 22.51 74.3825 22 74 C21.67 74.99 21.34 75.98 21 77 C16.36166107 79.20873282 12.97047962 78.99409592 8 78 C7.16203269 73.34462607 6.9838308 69.62921525 8 65 C6.081875 64.9690625 6.081875 64.9690625 4.125 64.9375 C3.40570313 64.92589844 2.68640625 64.91429687 1.9453125 64.90234375 C-0.08185404 64.87350758 -0.08185404 64.87350758 -2 66 Z M-31 112 C-30 114 -30 114 -30 114 Z M-15 119 C-14 121 -14 121 -14 121 Z " fill="#DBDFDE" transform="translate(313,230)"/>
<path d="M0 0 C-1.28804354 3.86413063 -2.68527063 4.27447193 -6.125 6.375 C-16.47738169 13.14339926 -25.38494526 21.29270657 -34.05859375 30.08203125 C-34.59649033 30.62601059 -35.1343869 31.16998993 -35.68858337 31.73045349 C-38.38620491 34.46347236 -41.06858609 37.20925893 -43.72924805 39.97827148 C-50.58876366 47.03809481 -57.69085905 52.69414271 -66 58 C-40.49821792 53.71208974 -17.33896655 45.52096852 4.42578125 31.56640625 C7 30 7 30 10 29 C5.99231895 40.45051728 -6.31488121 46.74660376 -16.08203125 52.9609375 C-26.20161635 59.45975362 -34.63186795 67.39941984 -43 76 C-38.67016633 73.22761396 -34.75194201 70.1925668 -30.875 66.8125 C-13.63516777 52 -13.63516777 52 -11 52 C-10.67012745 55.19635125 -10.79478879 56.67603712 -12.5390625 59.4296875 C-13.22742188 60.23664063 -13.91578125 61.04359375 -14.625 61.875 C-15.35976562 62.74511719 -16.09453125 63.61523438 -16.8515625 64.51171875 C-17.91503906 65.74341797 -17.91503906 65.74341797 -19 67 C-19.52335937 67.64582031 -20.04671875 68.29164063 -20.5859375 68.95703125 C-30.89276322 81.57008041 -45.43900916 90.63761094 -59.26660156 98.92016602 C-66.68075667 103.36593211 -73.85255595 108.14015972 -81 113 C-53.91855856 108.32229648 -24.53814147 99.35988559 -5.48828125 78.43359375 C-4 77 -4 77 -2 77 C-1.38055554 84.69487678 -6.86579938 90.41059122 -11.52734375 96.06640625 C-21.78785806 107.79751944 -34.30314007 116.46716632 -46.89501953 125.49121094 C-69.51109946 141.70176232 -87.00981123 160.02943368 -96 187 C-96.99 187 -97.98 187 -99 187 C-100.41216097 162.60099666 -91.49319619 140.59183543 -76 122 C-87.22 122 -98.44 122 -110 122 C-110 121.34 -110 120.68 -110 120 C-107.62934835 118.47231434 -105.24898985 117.04042946 -102.8125 115.625 C-94.55530381 110.6447896 -87.7425758 104.85777323 -81 98 C-80.19046875 97.18917969 -79.3809375 96.37835938 -78.546875 95.54296875 C-71.77549984 88.40461346 -65.41664382 79.83328763 -61 71 C-62.68802734 70.94392578 -62.68802734 70.94392578 -64.41015625 70.88671875 C-77.77887892 70.35073973 -90.35799823 68.6575796 -103 64 C-103 63.34 -103 62.68 -103 62 C-102.12859375 61.84144531 -101.2571875 61.68289063 -100.359375 61.51953125 C-77.83060651 57.10642833 -62.5328038 44.99394734 -47 28.875 C-37.06249686 18.85451145 -14.84689141 0 0 0 Z " fill="#DBDFDE" transform="translate(244,227)"/>
<path d="M0 0 C20.88932787 8.99034364 39.30575935 21.47514494 55 38 C56.6454378 39.68762851 58.31288577 41.3540349 60 43 C60.78890625 43.78310547 60.78890625 43.78310547 61.59375 44.58203125 C73.68258582 55.92812081 88.73270606 62.06220323 105 64 C104.505 65.485 104.505 65.485 104 67 C101.07836973 67.86544717 98.2913141 68.54183357 95.3125 69.125 C94.50876953 69.29386719 93.70503906 69.46273437 92.87695312 69.63671875 C90.58823567 70.11205336 88.29558832 70.55924915 86 71 C85.01128906 71.20238281 84.02257812 71.40476562 83.00390625 71.61328125 C78.86746067 72.14580155 74.79015993 72.10567949 70.625 72.0625 C69.79355469 72.05798828 68.96210937 72.05347656 68.10546875 72.04882812 C66.07028103 72.03713164 64.03513077 72.01919935 62 72 C67.36902382 79.92925277 72.85478436 87.6430517 79 95 C79.58910156 95.73605469 80.17820312 96.47210938 80.78515625 97.23046875 C89.25405118 107.38954653 100.13507901 115.2612525 112 121 C112 121.99 112 122.98 112 124 C101.94401799 124.10055982 92.01292948 124.09945892 82 123 C82.42410156 123.6084375 82.84820313 124.216875 83.28515625 124.84375 C96.87934259 145.16033618 100.82574568 164.83741108 100 189 C99.01 188.67 98.02 188.34 97 188 C96.13864498 185.63507826 95.45230168 183.36270946 94.8125 180.9375 C87.55606368 155.89263793 71.70159931 136.38753733 51 121 C50.34660645 120.5138623 49.69321289 120.02772461 49.02001953 119.52685547 C48.35470215 119.0320166 47.68938477 118.53717773 47.00390625 118.02734375 C13.69842076 93.25248405 13.69842076 93.25248405 7 77 C10.0099126 77.60231278 12.03249539 78.51583872 14.51953125 80.30078125 C15.19991455 80.77741211 15.88029785 81.25404297 16.58129883 81.74511719 C17.31759521 82.26235352 18.0538916 82.77958984 18.8125 83.3125 C37.50980171 96.0581254 58.12469044 106.06073585 80 112 C79.36835937 111.48953125 78.73671875 110.9790625 78.0859375 110.453125 C75.04585446 107.98250997 72.0199661 105.49512489 69 103 C68.20083664 102.34011581 68.20083664 102.34011581 67.38552856 101.66690063 C58.91709689 94.63690258 51.07788918 87.20534735 43.43130493 79.29598999 C33.60461815 69.16429832 23.78239986 59.9837394 11.89794922 52.26489258 C3.91673071 46.94579133 -3.39050271 40.8532962 -9 33 C-9 32.34 -9 31.68 -9 31 C-4.86528283 32.45931194 -1.6075817 34.52420864 2 37 C21.68120611 50.02255435 42.99540647 56.81946981 66 61 C65.29230469 60.43539062 64.58460938 59.87078125 63.85546875 59.2890625 C62.91316406 58.53367187 61.97085938 57.77828125 61 57 C60.12988281 56.30648437 59.25976562 55.61296875 58.36328125 54.8984375 C50.39273913 48.30564594 43.13350465 41.16717746 35.89224243 33.79721069 C25.15116076 22.8673078 14.35909067 12.90054443 1.5546875 4.37109375 C1.04164063 3.91863281 0.52859375 3.46617187 0 3 C0 2.01 0 1.02 0 0 Z " fill="#DBDFDE" transform="translate(567,225)"/>
<path d="M0 0 C6.98629906 2.8919988 13.96574332 5.79993996 20.93945312 8.72216797 C23.53379234 9.80535012 26.13282128 10.87573022 28.734375 11.94140625 C49.41344183 20.52797981 66.15565257 34.16667786 74.9453125 55.140625 C81.59811678 73.17711661 82.85287268 90.61840053 81.125 109.625 C81.00753418 110.97899902 81.00753418 110.97899902 80.88769531 112.36035156 C80.80358398 113.20307617 80.71947266 114.04580078 80.6328125 114.9140625 C80.55949707 115.6767041 80.48618164 116.4393457 80.41064453 117.22509766 C80.27513184 117.81081543 80.13961914 118.3965332 80 119 C79.01 119.495 79.01 119.495 78 120 C77.88519287 119.37770508 77.77038574 118.75541016 77.65209961 118.11425781 C69.65735144 75.54329783 52.11083704 44.04232151 17.1171875 18.0859375 C13.14215868 15.13407251 9.2938895 12.05559559 5.5 8.875 C4.9539209 8.42543945 4.4078418 7.97587891 3.84521484 7.51269531 C1.30962367 5.36713166 0.07277719 4.21833156 -1 1 C-0.67 0.67 -0.34 0.34 0 0 Z " fill="#DBDFDE" transform="translate(578,348)"/>
<path d="M0 0 C-0.56810222 3.24282643 -1.37164944 4.70604883 -3.88671875 6.8125 C-4.48846924 7.32458008 -5.09021973 7.83666016 -5.71020508 8.36425781 C-6.3627124 8.90405273 -7.01521973 9.44384766 -7.6875 10 C-8.35869873 10.5681543 -9.02989746 11.13630859 -9.72143555 11.72167969 C-11.11952286 12.90463883 -12.52069492 14.08396113 -13.92480469 15.25976562 C-17.07363288 17.9003359 -20.19339763 20.57444368 -23.3125 23.25 C-23.89322266 23.74749756 -24.47394531 24.24499512 -25.07226562 24.75756836 C-30.12346065 29.09116614 -35.12787762 33.46469637 -40 38 C-40.90492188 38.83917969 -41.80984375 39.67835938 -42.7421875 40.54296875 C-65.28380295 62.17917305 -73.72484205 88.85898514 -78 119 C-78.99 119 -79.98 119 -81 119 C-85.35176234 104.82842925 -83.05846195 81.95864942 -79 68 C-78.80664062 67.31873047 -78.61328125 66.63746094 -78.4140625 65.93554688 C-72.67332133 46.25047452 -60.9328352 29.10251641 -42.96875 18.59765625 C-41.9890625 18.07042969 -41.009375 17.54320312 -40 17 C-38.8553125 16.37996094 -37.710625 15.75992187 -36.53125 15.12109375 C-7.76801648 0 -7.76801648 0 0 0 Z " fill="#DBDFDE" transform="translate(236,349)"/>
<path d="M0 0 C0.66 0 1.32 0 2 0 C-0.45455191 16.09095138 -11.13545695 27.80810558 -21.7109375 39.4375 C-35.59021548 54.97471221 -47.48893653 68.8581177 -46.3046875 90.46630859 C-45.64417687 95.9589202 -43.84244543 101.18570306 -42.04663086 106.3984375 C-41.63489624 107.60306641 -41.63489624 107.60306641 -41.21484375 108.83203125 C-40.95823975 109.54077393 -40.70163574 110.2495166 -40.43725586 110.97973633 C-39.93138531 113.31702211 -40.2557527 114.75211446 -41 117 C-52.17019657 111.80573252 -60.75952667 102.67447634 -65.11328125 91.21875 C-67.08206767 84.07214202 -67.40197277 76.92201753 -64 70.1875 C-59.06081414 62.57697982 -51.80717015 56.86912436 -45 51 C-28.22160087 36.49976883 -12.28179911 20.7791096 -1.08691406 1.47094727 C-0.72823242 0.98553467 -0.36955078 0.50012207 0 0 Z " fill="#DCE0DF" transform="translate(550,49)"/>
<path d="M0 0 C0.495 1.485 0.495 1.485 1 3 C-0.17804199 2.9685791 -0.17804199 2.9685791 -1.37988281 2.93652344 C-5.00312036 2.85241066 -8.62615148 2.80104012 -12.25 2.75 C-14.10238281 2.69972656 -14.10238281 2.69972656 -15.9921875 2.6484375 C-30.67898483 2.49383963 -42.79105339 7.19000456 -53.6875 17.125 C-63.84078921 28.01049756 -70.49954918 42.67339761 -70.2109375 57.65234375 C-69.49606351 65.60862646 -67.30448778 72.68699194 -63.75 79.8125 C-61.03704072 85.41301495 -60.42905777 88.01078274 -62 94 C-62.36707008 95.6638724 -62.7205513 97.33078375 -63.0625 99 C-63.32353516 100.24910156 -63.32353516 100.24910156 -63.58984375 101.5234375 C-64.17682539 105.06768853 -64.13278368 108.41484052 -64 112 C-68.46998901 111.23232797 -70.24041115 109.15334893 -73.06640625 105.75 C-84.25974054 89.83059123 -89.0860381 71.34689376 -87 52 C-85.9765625 48.41015625 -85.9765625 48.41015625 -85 46 C-84.34 46.33 -83.68 46.66 -83 47 C-82.37330801 49.16467461 -81.84572626 51.35864524 -81.375 53.5625 C-81.11460937 54.76003906 -80.85421875 55.95757812 -80.5859375 57.19140625 C-80.29589844 58.58166016 -80.29589844 58.58166016 -80 60 C-79.76925781 59.07960938 -79.53851563 58.15921875 -79.30078125 57.2109375 C-72.79787853 31.9704218 -72.79787853 31.9704218 -65 22 C-64.52304687 21.33742187 -64.04609375 20.67484375 -63.5546875 19.9921875 C-54.3952183 8.25517922 -38.11484343 0.45352229 -23.6484375 -1.72265625 C-15.45919785 -2.58023149 -8.03630491 -1.71115238 0 0 Z " fill="#DBDFDE" transform="translate(508,219)"/>
<path d="M0 0 C19.31604334 12.56942531 26.2346728 30.22545504 31.6953125 51.75390625 C33.0153125 47.79390625 34.3353125 43.83390625 35.6953125 39.75390625 C36.3553125 39.75390625 37.0153125 39.75390625 37.6953125 39.75390625 C42.07863375 55.08119163 39.02481163 74.594908 32.0078125 88.62890625 C28.68267865 94.2188634 24.59179129 99.45433154 19.6953125 103.75390625 C18.7053125 103.75390625 17.7153125 103.75390625 16.6953125 103.75390625 C16.51355469 102.23410156 16.51355469 102.23410156 16.328125 100.68359375 C16.15917467 99.33199115 15.98988581 97.98043083 15.8203125 96.62890625 C15.74167969 95.96375 15.66304688 95.29859375 15.58203125 94.61328125 C15.05005526 90.43931579 14.06556233 86.72011462 12.6953125 82.75390625 C12.78918732 78.62341436 14.16225266 75.75965108 16.0703125 72.19140625 C22.24593233 60.30557561 23.27520533 47.53656025 19.6953125 34.75390625 C14.57647546 19.29377495 5.26709519 8.6770118 -8.32421875 0.11328125 C-17.43932422 -4.04406698 -26.07925668 -4.65066523 -35.9921875 -4.43359375 C-37.18263672 -4.42005859 -38.37308594 -4.40652344 -39.59960938 -4.39257812 C-42.50179488 -4.35761203 -45.40298559 -4.30854071 -48.3046875 -4.24609375 C-48.3046875 -4.90609375 -48.3046875 -5.56609375 -48.3046875 -6.24609375 C-32.13215084 -11.69506163 -14.49225531 -8.42916891 0 0 Z " fill="#DCDFDE" transform="translate(351.3046875,226.24609375)"/>
<path d="M0 0 C3.44909831 3.27130973 6.11312137 6.47214176 8.625 10.5 C13.20040597 17.5047491 18.45574852 23.74716981 24 30 C24.7110791 30.8058252 24.7110791 30.8058252 25.43652344 31.62792969 C30.40162182 37.23018745 35.4268297 42.60321274 41.171875 47.42578125 C43.04463491 49.03843562 44.77042577 50.73536683 46.5 52.5 C48.91065479 54.95448488 51.39352391 57.2544206 54 59.5 C67.82466561 71.52960244 67.82466561 71.52960244 69.37890625 80.0859375 C69.88370095 89.10710729 66.39734154 98.22069216 60.70703125 105.12109375 C51.251442 115.52873318 51.251442 115.52873318 46 118 C45.34 118 44.68 118 44 118 C44.51997579 113.11222756 45.61223227 108.83411661 47.28125 104.2109375 C50.47941728 94.37309685 51.16552616 79.83044964 46.5078125 70.43359375 C39.30971762 58.8159432 30.61844717 48.54143174 21.54101562 38.36425781 C0.63206175 14.9023007 0.63206175 14.9023007 -0.1875 2.0625 C-0.125625 1.381875 -0.06375 0.70125 0 0 Z " fill="#DBDEDD" transform="translate(258,47)"/>
<path d="M0 0 C0.13535156 0.73863281 0.27070313 1.47726562 0.41015625 2.23828125 C2.88418948 13.89734802 8.26778618 21.91408309 16.984375 29.9296875 C19.11552713 32.11866159 20.53099366 34.33161507 22 37 C21.03578125 36.91621094 20.0715625 36.83242188 19.078125 36.74609375 C17.18320312 36.59333984 17.18320312 36.59333984 15.25 36.4375 C13.99703125 36.33308594 12.7440625 36.22867188 11.453125 36.12109375 C8.60547636 36.02123277 6.65713933 36.09415705 4 37 C4.55041763 42.77938508 6.64789545 46.64789545 10.75 50.75 C12 52 12 52 12 54 C8.22360282 53.48967606 6.55277419 52.79233071 4 50 C4.53113332 57.89955433 6.63659823 64.92516517 9.0625 72.4375 C9.80571749 74.76878907 10.54672278 77.10078494 11.28515625 79.43359375 C11.61394775 80.45509521 11.94273926 81.47659668 12.28149414 82.52905273 C13 85 13 85 13 87 C10 86 10 86 8.71655273 83.97241211 C8.29317627 83.08303955 7.8697998 82.19366699 7.43359375 81.27734375 C6.95253174 80.27461426 6.47146973 79.27188477 5.97583008 78.23876953 C5.46818115 77.14935059 4.96053223 76.05993164 4.4375 74.9375 C3.91244873 73.82745605 3.38739746 72.71741211 2.84643555 71.57373047 C-16.64770183 29.92943459 -16.64770183 29.92943459 -11.4375 14.1875 C-9.60780242 9.76737035 -5.43521602 0 0 0 Z " fill="#DBDFDE" transform="translate(470,341)"/>
<path d="M0 0 C0.66 0 1.32 0 2 0 C9.09031019 11.44557411 16.08758267 22.99672104 13 37 C11.46875 40.19140625 11.46875 40.19140625 9.5 43.5625 C5.95168707 49.85122218 3.15055784 56.28759317 0.5 63 C-3.08076128 72.04027381 -7.17656454 80.56227366 -12 89 C-12.33 89 -12.66 89 -13 89 C-12.44881644 82.99141874 -11.10377124 77.84766575 -9.0625 72.1875 C-6.73925001 65.520364 -4.89802793 59.02939102 -4 52 C-4.5775 52.495 -5.155 52.99 -5.75 53.5 C-8 55 -8 55 -12 55 C-11 52 -11 52 -8.5625 49.625 C-4.82190048 45.79316634 -4 43.32265647 -4 38 C-9.92724152 36.10328271 -15.97520914 37.01636068 -22 38 C-20.42861846 34.05327428 -17.84603046 31.84225747 -14.75 29 C-6.32725251 20.89571362 -2.53552592 11.29865935 0 0 Z " fill="#DADEDD" transform="translate(341,340)"/>
<path d="M0 0 C8.50313844 3.58026882 16.85041982 12.56891822 21.0546875 20.625 C23.32722044 26.33450426 22.84198096 30.18647525 20.4765625 35.8046875 C16.78448829 43.89906991 12.47815715 50.79750912 6 57 C5.34 56.67 4.68 56.34 4 56 C4.27714844 55.26394531 4.55429687 54.52789062 4.83984375 53.76953125 C5.20207031 52.79371094 5.56429687 51.81789063 5.9375 50.8125 C6.29714844 49.84957031 6.65679688 48.88664062 7.02734375 47.89453125 C11.78337157 33.74105088 8.83901147 20.48194817 2.77734375 7.3515625 C1.87336344 5.55656216 0.94035033 3.77621729 0 2 C0 1.34 0 0.68 0 0 Z " fill="#DBDFDE" transform="translate(549,327)"/>
<path d="M0 0 C-1.12259518 2.82807632 -2.26807893 5.6439722 -3.4375 8.453125 C-10.18059225 24.73861093 -12.05286748 36.99011695 -6 54 C-5.33056389 55.99907472 -4.66308137 57.99880847 -4 60 C-11.61273459 57.06538576 -16.80754394 47.05190396 -20.0625 39.9375 C-22.18484012 34.2606112 -23.28395611 29.00109919 -22 23 C-20.45798655 19.86379972 -18.3812703 17.53678183 -16 15 C-15.26523438 14.16210938 -14.53046875 13.32421875 -13.7734375 12.4609375 C-11.54988003 9.93991415 -9.28872532 7.46185768 -7 5 C-6.46632813 4.42378906 -5.93265625 3.84757812 -5.3828125 3.25390625 C-2.26717422 0 -2.26717422 0 0 0 Z " fill="#DBDFDE" transform="translate(263,326)"/>
<path d="M0 0 C6.45779856 2.99195847 10.89120031 7.12214605 16 12 C16.53141602 12.50418457 17.06283203 13.00836914 17.61035156 13.52783203 C34.0779451 29.23383529 34.0779451 29.23383529 37 38 C31.62728567 37.04619229 28.09372807 33.39495967 24 30 C23.25105469 29.38769531 22.50210938 28.77539062 21.73046875 28.14453125 C15.70195849 23.02399277 10.83999795 17.2358026 6 11 C5.37351562 10.21625 4.74703125 9.4325 4.1015625 8.625 C0 3.38732394 0 3.38732394 0 0 Z " fill="#D7DBDA" transform="translate(579,280)"/>
<path d="M0 0 C0.66 0 1.32 0 2 0 C1.98428955 1.02246826 1.9685791 2.04493652 1.95239258 3.09838867 C1.8973852 6.95442577 1.86339729 10.81042953 1.83520508 14.66674805 C1.82027746 16.32403427 1.7999279 17.98128212 1.77368164 19.63842773 C1.57380298 32.59918689 2.33359188 44.47459692 8.1875 56.3125 C8.71730469 57.40175781 9.24710937 58.49101562 9.79296875 59.61328125 C10.19128906 60.40089844 10.58960938 61.18851562 11 62 C6.57708536 60.02280723 4.24485997 57.2339764 2 53 C-4.15211071 36.51234329 -5.97014397 16.84433477 0 0 Z " fill="#DCE1DF" transform="translate(268,323)"/>
<path d="M0 0 C0.66 0 1.32 0 2 0 C2.4829607 2.01992995 2.96118112 4.04099354 3.4375 6.0625 C3.83775391 7.75052734 3.83775391 7.75052734 4.24609375 9.47265625 C8.26776226 28.28906385 7.01273976 46.63085928 -2.37890625 63.515625 C-4 66 -4 66 -6 67 C-5.15867613 62.01898026 -3.48331473 57.36354224 -1.81640625 52.61523438 C0.31253741 46.41106424 1.12642154 40.78491183 1.1328125 34.23828125 C1.13410156 32.95373047 1.13539063 31.66917969 1.13671875 30.34570312 C1.13462402 29.6819165 1.1325293 29.01812988 1.13037109 28.33422852 C1.12506098 26.33545515 1.13082557 24.33666235 1.13671875 22.33789062 C1.12922669 14.83459586 0.85564472 7.45619331 0 0 Z " fill="#DADEDD" transform="translate(540,318)"/>
<path d="M0 0 C10.68833652 6.95984704 10.68833652 6.95984704 11.63671875 10.125 C11.75660156 10.74375 11.87648438 11.3625 12 12 C4.6779661 10.77966102 4.6779661 10.77966102 1.5 7.125 C0 4 0 4 0 0 Z " fill="#D6D9D8" transform="translate(337,446)"/>
<path d="M0 0 C-0.83940736 3.9681075 -1.48958352 6.46199344 -4.3125 9.4375 C-7.21008596 11.122143 -8.71293449 11.37566463 -12 11 C-10.5611898 7.612801 -8.77880501 5.6405896 -6 3.25 C-5.29875 2.63640625 -4.5975 2.0228125 -3.875 1.390625 C-2 0 -2 0 0 0 Z " fill="#D6DAD8" transform="translate(474,446)"/>
<path d="M0 0 C-0.33967826 3.17033042 -0.99869191 3.99882607 -3.4375 6.1875 C-7.55773475 9.10181238 -9.95478992 9.09342982 -15 9 C-12.59888822 6.36115438 -9.99444972 4.63586471 -6.9375 2.8125 C-5.62072266 2.01779297 -5.62072266 2.01779297 -4.27734375 1.20703125 C-2 0 -2 0 0 0 Z " fill="#DBDEDD" transform="translate(470,479)"/>
<path d="M0 0 C-0.34888776 2.52943628 -0.81127047 3.7961721 -2.5625 5.6875 C-6.02526646 7.55206656 -9.0890474 7.67408728 -13 8 C-12 5 -12 5 -9.78515625 3.61328125 C-8.43744141 2.96939453 -8.43744141 2.96939453 -7.0625 2.3125 C-6.16660156 1.87550781 -5.27070313 1.43851562 -4.34765625 0.98828125 C-2 0 -2 0 0 0 Z " fill="#C8CBCA" transform="translate(473,470)"/>
<path d="M0 0 C8.86956522 2.95652174 8.86956522 2.95652174 12 7 C12 7.66 12 8.32 12 9 C2.40546697 6.29384966 2.40546697 6.29384966 -1 2 C-0.67 1.34 -0.34 0.68 0 0 Z " fill="#D8DBDA" transform="translate(337,460)"/>
<path d="M0 0 C0.33 0.99 0.66 1.98 1 3 C-3.30972626 7.09949571 -5.85310727 8.63118644 -12 9 C-10.67708855 5.03126566 -9.08850262 4.70094963 -5.4375 2.8125 C-4.42558594 2.28269531 -3.41367187 1.75289063 -2.37109375 1.20703125 C-1.58863281 0.80871094 -0.80617188 0.41039062 0 0 Z " fill="#DDE1E0" transform="translate(474,459)"/>
<path d="M0 0 C1.41805831 0.28482368 2.83440379 0.57818144 4.25 0.875 C5.03890625 1.03742188 5.8278125 1.19984375 6.640625 1.3671875 C8.96831144 1.99150075 10.89031952 2.84838542 13 4 C13 4.99 13 5.98 13 7 C7.72611976 7.50227431 5.08984305 6.32894202 1 3 C0.67 2.01 0.34 1.02 0 0 Z " fill="#D9DDDC" transform="translate(338,471)"/>
<path d="M0 0 C4.96466917 1.16815745 8.2384416 2.35242821 12 6 C12 6.66 12 7.32 12 8 C7.02833396 7.526508 3.89003364 6.14907485 0 3 C0 2.01 0 1.02 0 0 Z " fill="#D6D8D8" transform="translate(341,480)"/>
<path d="M0 0 C0.66 0 1.32 0 2 0 C2.66 2.97 3.32 5.94 4 9 C3.01 9 2.02 9 1 9 C0.67 6.03 0.34 3.06 0 0 Z " fill="#CACCCC" transform="translate(540,318)"/>
</svg>
